<?xml version="1.0" encoding="utf-8"?><svg version="1.1" id="Layer_1" xmlns="http://www.w3.org/2000/svg" xmlns:xlink="http://www.w3.org/1999/xlink" x="0px" y="0px" viewBox="0 0 71.3 122.88" style="enable-background:new 0 0 71.3 122.88" xml:space="preserve"><style type="text/css">.st0{fill-rule:evenodd;clip-rule:evenodd;}</style><g><path class="st0" d="M7.96,24.76h55.38v27.02H7.96V24.76L7.96,24.76z M12.46,0h46.38c3.43,0,6.56,1.4,8.81,3.65 c2.25,2.25,3.65,5.38,3.65,8.81v97.96c0,3.43-1.4,6.56-3.65,8.81c-2.25,2.25-5.38,3.65-8.81,3.65H12.46c-3.43,0-6.56-1.4-8.81-3.65 C1.4,116.98,0,113.85,0,110.42V12.46C0,9.03,1.4,5.9,3.65,3.65C5.9,1.4,9.03,0,12.46,0L12.46,0z M7.96,95.49h23.42v5.18h6.71v-5.19 h25.26v5.19h4.97V17.82H2.99v82.86l0,0h4.97V95.49L7.96,95.49z M7.96,58.91h23.42v10.75H7.96V58.91L7.96,58.91z M38.09,58.89h25.26 v10.79H38.09V58.89L38.09,58.89z M37.72,76.84h25.26v10.79H37.72V76.84L37.72,76.84L37.72,76.84z M8.32,76.86h23.42v10.75H8.32 V76.86L8.32,76.86z M28.94,113c-0.81,0-1.51-0.66-1.51-1.51c0-0.81,0.66-1.51,1.51-1.51h13.71c0.81,0,1.51,0.66,1.51,1.51 c0,0.81-0.66,1.51-1.51,1.51H28.94L28.94,113z M35.65,6.46c1.33,0,2.4,1.07,2.4,2.4c0,1.33-1.07,2.4-2.4,2.4s-2.4-1.07-2.4-2.4 C33.25,7.53,34.32,6.46,35.65,6.46L35.65,6.46z M68.32,103.66H2.99v6.72c0,2.62,1.07,4.98,2.8,6.67c1.73,1.73,4.09,2.8,6.67,2.8 h46.38c2.62,0,4.98-1.07,6.67-2.8c1.73-1.73,2.8-4.09,2.8-6.67V103.66L68.32,103.66L68.32,103.66z M2.99,14.79h65.33v-2.33 c0-2.62-1.07-4.98-2.8-6.67c-1.73-1.73-4.09-2.8-6.67-2.8H12.46c-2.62,0-4.98,1.07-6.67,2.8c-1.73,1.73-2.8,4.09-2.8,6.67V14.79 L2.99,14.79L2.99,14.79z M29.11,30.99h4.99v9.64c0,0.95-0.15,1.86-0.45,2.7c-0.3,0.85-0.76,1.59-1.4,2.23 c-0.64,0.64-1.3,1.08-2,1.34c-0.97,0.36-2.14,0.54-3.5,0.54c-0.79,0-1.65-0.06-2.58-0.17c-0.93-0.11-1.71-0.33-2.33-0.66 c-0.63-0.33-1.2-0.79-1.71-1.39c-0.52-0.6-0.87-1.22-1.07-1.86c-0.31-1.03-0.46-1.94-0.46-2.73v-9.64h4.99v9.87 c0,0.88,0.24,1.57,0.73,2.06c0.49,0.5,1.17,0.75,2.03,0.75c0.85,0,1.53-0.24,2.02-0.73c0.49-0.49,0.73-1.18,0.73-2.08V30.99 L29.11,30.99z M36.29,30.99h5.51l2.87,4.98l2.78-4.98h5.45l-5.03,7.84l5.5,8.34h-5.63l-3.17-5.2l-3.2,5.2H35.8l5.58-8.43 L36.29,30.99L36.29,30.99z"/></g></svg>